# xmcd
#
# Track frame offsets: 
#        150
#        13495
#        29322
#        59692
#        76312
#        84790
#        104817
#        142100
#        158345
#        180862
#        201920
#
# Disc length: 2967 seconds
#
# Revision: 2
# Processed by: cddbd v1.5.2PL0 Copyright (c) Steve Scherf et al.
# Submitted via: ExactAudioCopy v0.95a5
#
DISCID=8c0b950b
DTITLE=Michael Garrison - Point Of Impact
DYEAR=1993
DGENRE=Electronic
TTITLE0=Daydreams
TTITLE1=Point Of Impact
TTITLE2=Forever Challenger
TTITLE3=Aftershock
TTITLE4=Upon The Horizons
TTITLE5=Reflections
TTITLE6=Bridge Of Air
TTITLE7=Colors
TTITLE8=Motion Fascination
TTITLE9=Visions (Bonustrack from Eclipse LP)
TTITLE10=Discovery (Bonustrack from Prisms LP)
EXTD=
EXTT0=
EXTT1=
EXTT2=
EXTT3=
EXTT4=
EXTT5=
EXTT6=
EXTT7=
EXTT8=
EXTT9=
EXTT10=
PLAYORDER=
